<svg version="1.1" xmlns="http://www.w3.org/2000/svg" xmlns:xlink="http://www.w3.org/1999/xlink" width="60" height="60" viewBox="0,0,256,256"><g transform="translate(51.2,51.2) scale(0.6,0.6)"><g fill="none" fill-rule="nonzero" stroke="#25cb7b" stroke-width="10" stroke-linecap="butt" stroke-linejoin="miter" stroke-miterlimit="10" stroke-dasharray="" stroke-dashoffset="0" font-family="none" font-weight="none" font-size="none" text-anchor="none" style="mix-blend-mode: normal"><path d="M128,334.79036c-114.20716,0 -206.79036,-92.5832 -206.79036,-206.79036v0c0,-114.20716 92.5832,-206.79036 206.79036,-206.79036h0c114.20716,0 206.79036,92.5832 206.79036,206.79036v0c0,114.20716 -92.5832,206.79036 -206.79036,206.79036z" id="shape"></path></g><g fill="#000000" fill-rule="nonzero" stroke="none" stroke-width="1" stroke-linecap="butt" stroke-linejoin="miter" stroke-miterlimit="10" stroke-dasharray="" stroke-dashoffset="0" font-family="none" font-weight="none" font-size="none" text-anchor="none" style="mix-blend-mode: normal"><g transform="translate(0.04053,-0.00534) scale(0.5,0.5)"><g transform="translate(0,512) scale(0.1,-0.1)"><path d="M2296,4839c-85,-29 -152,-75 -227,-157c-107,-116 -162,-235 -229,-501c-57,-229 -85,-309 -127,-371c-87,-130 -204,-214 -358,-261c-329,-100 -479,-161 -622,-254c-369,-240 -518,-707 -339,-1062c72,-144 171,-247 432,-450c330,-257 407,-356 489,-628c102,-336 135,-414 233,-537c121,-152 291,-265 489,-324c126,-38 320,-44 449,-16c184,41 334,116 663,331c359,236 480,293 785,371c361,92 538,175 682,318c129,128 184,260 184,441c0,147 -26,246 -144,540c-112,279 -126,329 -126,476c0,117 18,218 85,500c19,83 41,203 47,268c46,456 -193,747 -717,872c-55,14 -217,40 -361,60c-407,55 -500,85 -749,244c-151,97 -201,123 -274,145c-76,22 -192,20 -265,-5zM2530,4708c54,-16 105,-44 235,-128c261,-168 373,-205 785,-260c260,-35 426,-68 528,-106c308,-116 452,-303 452,-586c0,-105 -13,-186 -66,-410c-65,-275 -77,-361 -71,-508c5,-148 19,-194 139,-493c92,-228 115,-301 129,-409c30,-234 -91,-428 -347,-556c-86,-43 -246,-97 -409,-138c-335,-83 -438,-132 -842,-395c-246,-161 -381,-235 -513,-281c-92,-32 -99,-33 -255,-33c-147,1 -166,3 -240,28c-132,44 -238,110 -341,212c-79,79 -97,103 -142,195c-32,66 -69,165 -98,265c-25,88 -59,195 -76,237c-67,176 -196,322 -473,538c-335,261 -435,390 -465,599c-19,133 22,309 102,445c57,96 160,201 262,265c133,83 225,119 596,235c209,66 401,243 474,437c13,35 42,138 65,229c78,307 124,412 226,515c107,109 216,141 345,103z"></path><path d="M2695,3553c-156,-22 -362,-113 -492,-218c-160,-128 -285,-324 -339,-530c-23,-86 -27,-120 -27,-245c0,-125 4,-159 27,-245c75,-288 265,-520 531,-650c134,-66 246,-96 386,-102c299,-15 568,93 780,314c326,339 362,878 85,1267c-53,74 -181,198 -256,247c-172,113 -365,170 -564,168c-55,-1 -114,-4 -131,-6zM3055,3395c153,-42 337,-158 431,-271c141,-168 209,-355 208,-569c-2,-330 -184,-621 -479,-765c-131,-64 -195,-80 -340,-87c-139,-6 -243,9 -351,53c-257,102 -439,301 -521,571c-23,78 -26,104 -26,233c0,129 3,155 26,233c96,314 336,540 649,612c84,19 320,13 403,-10z"></path><path d="M2672,3170c-125,-33 -232,-101 -321,-204c-78,-90 -89,-142 -39,-179c23,-17 31,-18 55,-8c16,6 38,26 48,44c72,122 216,209 373,227c46,5 80,14 93,26c25,22 24,69 -1,94c-26,26 -108,26 -208,0z"></path></g></g></g></g></svg>