<svg width="22" height="22" viewBox="0 0 22 22" fill="none" xmlns="http://www.w3.org/2000/svg">
<path d="M9.42857 12.5714H1.57143C1.12619 12.5714 0.752976 12.4208 0.451786 12.1196C0.150595 11.8185 0 11.4452 0 11C0 10.5548 0.150595 10.1815 0.451786 9.88036C0.752976 9.57917 1.12619 9.42857 1.57143 9.42857H9.42857V1.57143C9.42857 1.12619 9.57917 0.752976 9.88036 0.451786C10.1815 0.150595 10.5548 0 11 0C11.4452 0 11.8185 0.150595 12.1196 0.451786C12.4208 0.752976 12.5714 1.12619 12.5714 1.57143V9.42857H20.4286C20.8738 9.42857 21.247 9.57917 21.5482 9.88036C21.8494 10.1815 22 10.5548 22 11C22 11.4452 21.8494 11.8185 21.5482 12.1196C21.247 12.4208 20.8738 12.5714 20.4286 12.5714H12.5714V20.4286C12.5714 20.8738 12.4208 21.247 12.1196 21.5482C11.8185 21.8494 11.4452 22 11 22C10.5548 22 10.1815 21.8494 9.88036 21.5482C9.57917 21.247 9.42857 20.8738 9.42857 20.4286V12.5714Z" fill="white"/>
</svg>
