<svg version="1.1" xmlns="http://www.w3.org/2000/svg" xmlns:xlink="http://www.w3.org/1999/xlink" width="60" height="60" viewBox="0,0,256,256"><g transform="translate(51.2,51.2) scale(0.6,0.6)"><g fill="none" fill-rule="nonzero" stroke="#25cb7b" stroke-width="10" stroke-linecap="butt" stroke-linejoin="miter" stroke-miterlimit="10" stroke-dasharray="" stroke-dashoffset="0" font-family="none" font-weight="none" font-size="none" text-anchor="none" style="mix-blend-mode: normal"><path d="M128,334.79036c-114.20716,0 -206.79036,-92.5832 -206.79036,-206.79036v0c0,-114.20716 92.5832,-206.79036 206.79036,-206.79036h0c114.20716,0 206.79036,92.5832 206.79036,206.79036v0c0,114.20716 -92.5832,206.79036 -206.79036,206.79036z" id="shape"></path></g><g fill="#000000" fill-rule="nonzero" stroke="none" stroke-width="1" stroke-linecap="butt" stroke-linejoin="miter" stroke-miterlimit="10" stroke-dasharray="" stroke-dashoffset="0" font-family="none" font-weight="none" font-size="none" text-anchor="none" style="mix-blend-mode: normal"><g transform="translate(0.035,-0.0375) scale(0.5,0.5)"><g transform="translate(0,512) scale(0.1,-0.1)"><path d="M2220,4725c-313,-43 -597,-149 -865,-320c-86,-56 -262,-194 -309,-244c-17,-17 -33,-31 -38,-31c-4,0 -8,90 -8,201v201l-29,29c-53,52 -135,33 -162,-38c-5,-14 -9,-201 -9,-429v-404h-100h-100v421v421l-29,29c-31,31 -83,39 -122,19c-47,-26 -49,-42 -49,-480v-410h-100h-99l-3,426l-3,426l-28,24c-30,26 -83,32 -118,14c-49,-27 -49,-32 -49,-605c0,-599 2,-625 66,-732c19,-32 57,-81 84,-108l50,-50l2,-1240l3,-1240l21,-46c33,-70 86,-123 155,-154c55,-24 71,-27 138,-23c92,6 140,28 200,93c77,84 75,72 81,514l5,394l43,-56c66,-88 215,-240 316,-321c386,-313 843,-476 1336,-476c325,0 615,66 908,206c501,239 869,643 1073,1179l38,100l1,-696c0,-801 -5,-756 89,-850c64,-64 124,-89 211,-89c114,0 214,61 268,164l27,51l3,1955c2,1457 -1,1962 -9,1983c-19,44 -46,57 -122,57c-333,0 -685,-247 -804,-566c-16,-41 -30,-74 -33,-74c-3,1 -21,21 -40,46c-19,25 -82,91 -140,148c-326,319 -748,523 -1203,581c-143,18 -414,18 -547,0zM2730,4530c126,-16 263,-46 370,-80c132,-43 376,-166 489,-247c125,-90 300,-259 428,-413l103,-124v-711c0,-708 0,-711 21,-734c30,-32 61,-41 140,-41h71l-7,-32c-17,-75 -80,-241 -135,-354c-317,-652 -980,-1064 -1708,-1064c-681,1 -1288,344 -1639,929l-63,104v658v659l58,58c60,60 113,154 131,232c6,25 11,135 11,246v200l82,94c289,327 715,555 1152,614c123,17 381,20 496,6zM4918,3383l-3,-998l-297,-3l-298,-2v697c0,770 0,771 63,905c67,145 180,261 322,333c70,36 150,62 193,64l22,1zM800,3462c0,-97 -97,-223 -199,-257c-178,-59 -368,57 -397,243l-7,42h302h301zM600,2038v-958h-100h-100v958v957h100h100zM4920,1630v-550h-100h-100v550v550h100h100zM600,759c0,-120 0,-121 -29,-150c-49,-49 -128,-35 -160,28c-6,12 -11,71 -11,132v111h100h100zM4920,769c0,-61 -5,-120 -11,-132c-32,-63 -111,-77 -160,-28c-29,29 -29,30 -29,150v121h100h100z"></path><path d="M2265,3964c-544,-98 -970,-512 -1087,-1057c-29,-135 -31,-388 -5,-520c106,-529 489,-932 1014,-1065c100,-25 123,-27 313,-27c190,0 213,2 312,27c402,102 715,354 901,723c45,90 91,230 114,342c24,121 24,375 0,496c-112,562 -543,985 -1101,1082c-111,19 -352,18 -461,-1zM2702,3765c238,-41 451,-156 625,-338c96,-100 150,-177 208,-300c311,-650 -47,-1413 -753,-1605c-88,-24 -114,-26 -282,-26c-168,0 -194,2 -282,26c-211,58 -393,163 -538,314c-97,101 -150,174 -207,289c-164,326 -161,707 8,1035c62,121 126,205 231,305c163,157 364,261 578,300c102,18 308,18 412,0z"></path></g></g></g></g></svg>