<svg version="1.1" xmlns="http://www.w3.org/2000/svg" xmlns:xlink="http://www.w3.org/1999/xlink" width="60" height="60" viewBox="0,0,256,256"><g transform="translate(51.2,51.2) scale(0.6,0.6)"><g fill="none" fill-rule="nonzero" stroke="#25cb7b" stroke-width="10" stroke-linecap="butt" stroke-linejoin="miter" stroke-miterlimit="10" stroke-dasharray="" stroke-dashoffset="0" font-family="none" font-weight="none" font-size="none" text-anchor="none" style="mix-blend-mode: normal"><path d="M128,334.79036c-114.20716,0 -206.79036,-92.5832 -206.79036,-206.79036v0c0,-114.20716 92.5832,-206.79036 206.79036,-206.79036h0c114.20716,0 206.79036,92.5832 206.79036,206.79036v0c0,114.20716 -92.5832,206.79036 -206.79036,206.79036z" id="shape"></path></g><g fill="#000000" fill-rule="nonzero" stroke="none" stroke-width="1" stroke-linecap="butt" stroke-linejoin="miter" stroke-miterlimit="10" stroke-dasharray="" stroke-dashoffset="0" font-family="none" font-weight="none" font-size="none" text-anchor="none" style="mix-blend-mode: normal"><g transform="translate(4,0) scale(0.5,0.5)"><g transform="translate(0,512) scale(0.1,-0.1)"><path d="M425,4935c-16,-15 -25,-36 -25,-55c0,-19 9,-40 25,-55l24,-25h2031h2031l24,25c33,32 33,78 0,110l-24,25h-2031h-2031z"></path><path d="M425,4615c-16,-15 -25,-36 -25,-55c0,-32 37,-80 62,-80c7,0 918,-72 2023,-161c1758,-141 2013,-159 2035,-147c48,26 52,103 7,132c-17,11 -270,35 -1032,96c-556,44 -1120,89 -1255,100c-135,11 -387,31 -560,45c-344,27 -554,44 -935,75c-309,25 -291,25 -320,-5z"></path><path d="M2441,3984c-109,-29 -221,-110 -281,-202l-15,-23l-65,27c-142,59 -318,41 -448,-46c-107,-72 -184,-194 -204,-328l-11,-69l-69,-11c-134,-20 -256,-97 -328,-204c-87,-130 -105,-306 -46,-448l27,-65l-23,-15c-110,-72 -179,-180 -212,-332c-6,-28 -8,-28 -82,-28c-66,0 -78,-3 -99,-25c-21,-20 -25,-34 -25,-87c0,-35 5,-102 10,-148c71,-582 395,-1073 897,-1355l81,-46l4,-152c3,-139 5,-155 27,-190c12,-21 40,-46 62,-57c37,-19 63,-20 919,-20c856,0 882,1 919,20c22,11 50,36 62,57c22,34 24,53 29,191l5,152l83,48c325,187 582,463 735,792c99,213 167,500 167,708c0,53 -4,67 -25,87c-21,22 -33,25 -99,25c-74,0 -76,0 -82,28c-33,152 -102,260 -212,332l-23,15l27,65c59,142 41,318 -46,448c-72,107 -194,184 -328,204l-69,11l-11,69c-12,80 -57,181 -108,243c-128,157 -375,211 -561,123l-46,-22l-16,25c-109,168 -329,254 -520,203zM2698,3806c72,-36 124,-94 157,-170c41,-98 81,-109 165,-46c73,55 135,74 224,68c117,-8 211,-71 263,-176c26,-53 28,-65 26,-164c-2,-141 0,-143 146,-143c96,0 111,-3 163,-28c185,-91 234,-322 104,-492c-57,-76 -45,-121 43,-156c96,-39 172,-124 199,-221l10,-38h-1638h-1638l10,38c27,98 96,176 193,218c96,40 107,80 45,164c-55,73 -74,135 -68,224c8,117 71,211 176,263c53,26 65,28 164,26c141,-2 143,0 143,146c0,96 3,111 28,163c52,105 146,168 263,176c89,6 151,-13 224,-68c84,-63 124,-52 165,46c40,95 115,162 215,195c50,17 162,4 218,-25zM4400,2073c0,-5 -7,-55 -14,-113c-34,-255 -120,-481 -267,-700c-126,-188 -359,-399 -558,-504l-88,-46h-912h-912l-62,31c-205,103 -461,330 -586,519c-148,223 -233,445 -267,700c-7,58 -14,108 -14,113c0,4 828,7 1840,7c1012,0 1840,-3 1840,-7zM3410,435v-115h-850h-850v115v115h850h850z"></path></g></g></g></g></svg>