<svg version="1.1" xmlns="http://www.w3.org/2000/svg" xmlns:xlink="http://www.w3.org/1999/xlink" width="60" height="60" viewBox="0,0,256,256"><g transform="translate(51.2,51.2) scale(0.6,0.6)"><g fill="none" fill-rule="nonzero" stroke="#25cb7b" stroke-width="10" stroke-linecap="butt" stroke-linejoin="miter" stroke-miterlimit="10" stroke-dasharray="" stroke-dashoffset="0" font-family="none" font-weight="none" font-size="none" text-anchor="none" style="mix-blend-mode: normal"><path d="M128,334.79036c-114.20716,0 -206.79036,-92.5832 -206.79036,-206.79036v0c0,-114.20716 92.5832,-206.79036 206.79036,-206.79036h0c114.20716,0 206.79036,92.5832 206.79036,206.79036v0c0,114.20716 -92.5832,206.79036 -206.79036,206.79036z" id="shape"></path></g><g fill="#000000" fill-rule="nonzero" stroke="none" stroke-width="1" stroke-linecap="butt" stroke-linejoin="miter" stroke-miterlimit="10" stroke-dasharray="" stroke-dashoffset="0" font-family="none" font-weight="none" font-size="none" text-anchor="none" style="mix-blend-mode: normal"><g transform="translate(0.00715,-0.11509) scale(0.5,0.5)"><g transform="translate(0,512) scale(0.1,-0.1)"><path d="M369,4851c-19,-11 -64,-38 -99,-60c-53,-35 -69,-40 -95,-35c-71,17 -121,-2 -155,-59c-18,-30 -20,-52 -20,-287c0,-396 23,-568 115,-850c76,-233 82,-246 115,-260c23,-9 34,-9 57,2c54,26 53,49 -15,260c-34,106 -71,236 -82,288c-17,84 -40,269 -40,321c0,19 34,19 1445,19h1446l-6,-62c-3,-35 -8,-88 -11,-118c-11,-110 -46,-258 -110,-454c-121,-372 -144,-493 -151,-796c-6,-264 11,-439 64,-639c20,-75 36,-145 36,-156c-1,-11 -13,-51 -27,-89c-41,-106 -58,-200 -59,-323v-113l-31,-5c-17,-3 -73,-12 -123,-20c-212,-35 -352,-93 -426,-174l-45,-51h-995c-665,0 -998,3 -1002,10c-9,15 13,220 36,334c11,55 49,190 85,300c130,399 148,504 148,856c1,267 -11,389 -41,422c-23,25 -85,24 -108,-2c-18,-19 -18,-29 -7,-163c33,-391 5,-632 -118,-1012c-132,-407 -150,-521 -150,-954c0,-229 2,-260 18,-290c31,-57 112,-88 162,-61c16,8 37,-1 113,-50c127,-81 150,-81 273,-4c49,31 94,57 99,57c6,0 50,-25 99,-57c123,-77 147,-77 274,3l93,59l93,-59c125,-80 149,-80 272,-3c49,31 94,57 99,57c6,0 50,-26 99,-57c123,-77 147,-77 272,3l93,59l93,-59c101,-64 149,-74 208,-44c27,14 30,13 62,-17c50,-47 112,-71 189,-72h66l28,-53c49,-95 136,-146 247,-146c78,0 160,34 203,85c66,78 115,217 150,423l22,130l139,7c164,7 243,27 389,97c368,176 617,550 619,932l1,117l87,12c101,15 128,32 128,85c0,41 -29,75 -62,75c-13,-1 -61,-7 -108,-14l-85,-12l-31,58c-69,126 -155,213 -269,270c-33,17 -61,32 -63,33c-6,5 38,252 58,323c43,155 89,212 171,212c64,0 111,-39 128,-106c7,-27 25,-59 42,-76l29,-30l93,7c90,7 94,6 124,-19c47,-40 59,-77 45,-146c-20,-93 7,-140 93,-166c70,-20 115,-71 115,-129c0,-41 -30,-94 -62,-111c-69,-36 -85,-80 -47,-128c57,-73 211,28 249,164c35,126 -27,263 -147,324l-47,23l3,55c7,156 -120,287 -280,288h-66l-18,40c-81,179 -326,216 -461,68c-66,-71 -126,-249 -156,-462l-13,-87l-135,-3c-111,-3 -151,-8 -225,-30c-210,-63 -412,-196 -540,-356l-49,-62l-8,29c-30,104 -50,274 -55,454c-9,322 17,494 122,819c134,411 145,477 152,900c4,290 3,318 -14,349c-10,19 -30,43 -44,53c-25,19 -88,26 -125,14c-14,-4 -47,11 -109,51c-79,51 -96,58 -140,58c-44,0 -61,-7 -138,-58c-48,-31 -90,-57 -93,-57c-3,0 -36,20 -74,45c-148,95 -164,96 -300,10l-91,-57l-90,57c-135,86 -150,85 -302,-12c-63,-40 -73,-44 -91,-32c-162,101 -181,111 -223,106c-28,-3 -70,-23 -132,-62l-90,-57l-91,57c-136,86 -152,85 -302,-12c-64,-41 -73,-45 -92,-32c-177,113 -212,125 -277,90zM665,4598c38,0 60,10 134,56c48,31 93,56 99,56c6,0 47,-23 91,-50c132,-85 153,-84 290,4l84,53l93,-59c127,-82 150,-82 278,0l93,60l84,-54c137,-88 158,-89 290,-4c44,27 85,50 91,50c5,0 50,-25 98,-56c125,-79 146,-77 299,21l66,42l85,-54c91,-58 133,-73 174,-66l26,5v-131v-131h-1445h-1445v129v129h45c38,-1 60,8 143,59l97,59l92,-59c78,-49 100,-59 138,-59zM3985,2413c77,-24 147,-67 201,-125c62,-66 86,-106 115,-188c40,-117 27,-346 -26,-450c-12,-23 -15,-20 -65,80c-29,58 -122,242 -207,409l-156,303l44,-7c24,-3 67,-13 94,-22zM3932,1948c279,-548 260,-483 169,-587l-48,-54l-155,304c-149,292 -380,746 -386,760c-4,10 123,55 164,58c6,1 121,-216 256,-481zM3782,1506l150,-299l-23,-19c-48,-37 -206,-108 -283,-128c-97,-25 -246,-27 -331,-5c-256,67 -405,307 -366,589c15,108 59,231 118,328c55,93 180,231 267,295l59,44l129,-253c71,-139 197,-388 280,-552zM2850,1231c16,-33 52,-86 79,-119c50,-59 180,-156 227,-168c29,-7 29,-2 3,-155c-24,-142 -60,-265 -95,-326c-31,-54 -94,-81 -147,-64c-46,15 -83,57 -97,110c-22,82 -75,112 -164,92c-61,-14 -95,-5 -138,36c-34,33 -44,81 -28,138c22,79 -17,142 -98,160c-47,10 -100,59 -108,101c-22,118 79,181 381,234c156,28 150,30 185,-39zM2144,986c22,-75 70,-134 136,-169c30,-16 55,-33 54,-38c-1,-5 -2,-27 -2,-49c-2,-28 -8,-42 -22,-50c-17,-9 -32,-3 -90,34c-156,101 -163,101 -322,-1l-70,-44l-91,58c-80,50 -99,58 -142,58c-44,0 -61,-7 -142,-58l-92,-59l-70,46c-158,102 -164,102 -322,0l-70,-46l-97,62c-89,56 -101,61 -143,57c-33,-3 -65,-17 -116,-49c-117,-76 -103,-74 -181,-24c-106,68 -131,78 -173,74l-39,-4v128v128h989h990z"></path><path d="M1755,3359c-415,-44 -824,-367 -915,-724c-46,-182 -9,-336 112,-458c261,-264 842,-178 1201,178c170,170 257,349 257,533c0,316 -272,511 -655,471zM2010,3193c113,-31 184,-86 226,-177c47,-101 26,-252 -56,-392c-52,-88 -218,-249 -318,-308c-414,-245 -863,-167 -889,156c-33,404 597,842 1037,721z"></path></g></g></g></g></svg>